{
  "accessors": [
    {
      "bufferView": 2,
      "componentType": 5126,
      "count": 260,
      "max": [
        1.6618568897247314,
        1.6618566513061523,
        3.641474485397339
      ],
      "min": [
        -1.6618566513061523,
        -1.6618566513061523,
        0.2407407909631729
      ],
      "type": "VEC3"
    },
    {
      "bufferView": 2,
      "byteOffset": 3120,
      "componentType": 5126,
      "count": 260,
      "max": [
        0.9999861717224121,
        0.9999861717224121,
        1.0
      ],
      "min": [
        -0.9999861717224121,
        -0.9999861717224121,
        -1.0
      ],
      "type": "VEC3"
    },
    {
      "bufferView": 1,
      "componentType": 5126,
      "count": 260,
      "max": [
        1.0000001192092896,
        1.0000001192092896
      ],
      "min": [
        0.0,
        0.0
      ],
      "type": "VEC2"
    },
    {
      "bufferView": 0,
      "componentType": 5125,
      "count": 1344,
      "type": "SCALAR"
    },
    {
      "bufferView": 2,
      "byteOffset": 6240,
      "componentType": 5126,
      "count": 354,
      "max": [
        0.920417845249176,
        1.7821462154388428,
        0.29402533173561096
      ],
      "min": [
        -0.9419667720794678,
        -1.6873546838760376,
        -0.32463541626930237
      ],
      "type": "VEC3"
    },
    {
      "bufferView": 2,
      "byteOffset": 10488,
      "componentType": 5126,
      "count": 354,
      "max": [
        0.9744337201118469,
        0.9304155111312866,
        0.999518871307373
      ],
      "min": [
        -0.9730238318443298,
        -0.9432487487792969,
        -0.9995197057723999
      ],
      "type": "VEC3"
    },
    {
      "bufferView": 1,
      "byteOffset": 2080,
      "componentType": 5126,
      "count": 354,
      "max": [
        0.0,
        0.0
      ],
      "min": [
        0.0,
        0.0
      ],
      "type": "VEC2"
    },
    {
      "bufferView": 0,
      "byteOffset": 5376,
      "componentType": 5125,
      "count": 2112,
      "type": "SCALAR"
    },
    {
      "bufferView": 2,
      "byteOffset": 14736,
      "componentType": 5126,
      "count": 354,
      "max": [
        0.920417845249176,
        1.7821462154388428,
        0.29402533173561096
      ],
      "min": [
        -0.9419667720794678,
        -1.6873546838760376,
        -0.32463541626930237
      ],
      "type": "VEC3"
    },
    {
      "bufferView": 2,
      "byteOffset": 18984,
      "componentType": 5126,
      "count": 354,
      "max": [
        0.9744337201118469,
        0.9304155111312866,
        0.999518871307373
      ],
      "min": [
        -0.9730238318443298,
        -0.9432487487792969,
        -0.9995197057723999
      ],
      "type": "VEC3"
    },
    {
      "bufferView": 1,
      "byteOffset": 4912,
      "componentType": 5126,
      "count": 354,
      "max": [
        0.0,
        0.0
      ],
      "min": [
        0.0,
        0.0
      ],
      "type": "VEC2"
    },
    {
      "bufferView": 0,
      "byteOffset": 13824,
      "componentType": 5125,
      "count": 2112,
      "type": "SCALAR"
    },
    {
      "bufferView": 2,
      "byteOffset": 23232,
      "componentType": 5126,
      "count": 354,
      "max": [
        0.920417845249176,
        1.7821462154388428,
        0.29402533173561096
      ],
      "min": [
        -0.9419667720794678,
        -1.6873546838760376,
        -0.32463541626930237
      ],
      "type": "VEC3"
    },
    {
      "bufferView": 2,
      "byteOffset": 27480,
      "componentType": 5126,
      "count": 354,
      "max": [
        0.9744337201118469,
        0.9304155111312866,
        0.999518871307373
      ],
      "min": [
        -0.9730238318443298,
        -0.9432487487792969,
        -0.9995197057723999
      ],
      "type": "VEC3"
    },
    {
      "bufferView": 1,
      "byteOffset": 7744,
      "componentType": 5126,
      "count": 354,
      "max": [
        0.0,
        0.0
      ],
      "min": [
        0.0,
        0.0
      ],
      "type": "VEC2"
    },
    {
      "bufferView": 0,
      "byteOffset": 22272,
      "componentType": 5125,
      "count": 2112,
      "type": "SCALAR"
    },
    {
      "bufferView": 2,
      "byteOffset": 31728,
      "componentType": 5126,
      "count": 354,
      "max": [
        0.920417845249176,
        1.7821462154388428,
        0.29402533173561096
      ],
      "min": [
        -0.9419667720794678,
        -1.6873546838760376,
        -0.32463541626930237
      ],
      "type": "VEC3"
    },
    {
      "bufferView": 2,
      "byteOffset": 35976,
      "componentType": 5126,
      "count": 354,
      "max": [
        0.9744337201118469,
        0.9304155111312866,
        0.999518871307373
      ],
      "min": [
        -0.9730238318443298,
        -0.9432487487792969,
        -0.9995197057723999
      ],
      "type": "VEC3"
    },
    {
      "bufferView": 1,
      "byteOffset": 10576,
      "componentType": 5126,
      "count": 354,
      "max": [
        0.0,
        0.0
      ],
      "min": [
        0.0,
        0.0
      ],
      "type": "VEC2"
    },
    {
      "bufferView": 0,
      "byteOffset": 30720,
      "componentType": 5125,
      "count": 2112,
      "type": "SCALAR"
    },
    {
      "bufferView": 2,
      "byteOffset": 40224,
      "componentType": 5126,
      "count": 354,
      "max": [
        0.920417845249176,
        1.7821462154388428,
        0.29402533173561096
      ],
      "min": [
        -0.9419667720794678,
        -1.6873546838760376,
        -0.32463541626930237
      ],
      "type": "VEC3"
    },
    {
      "bufferView": 2,
      "byteOffset": 44472,
      "componentType": 5126,
      "count": 354,
      "max": [
        0.9744337201118469,
        0.9304155111312866,
        0.999518871307373
      ],
      "min": [
        -0.9730238318443298,
        -0.9432487487792969,
        -0.9995197057723999
      ],
      "type": "VEC3"
    },
    {
      "bufferView": 1,
      "byteOffset": 13408,
      "componentType": 5126,
      "count": 354,
      "max": [
        0.0,
        0.0
      ],
      "min": [
        0.0,
        0.0
      ],
      "type": "VEC2"
    },
    {
      "bufferView": 0,
      "byteOffset": 39168,
      "componentType": 5125,
      "count": 2112,
      "type": "SCALAR"
    },
    {
      "bufferView": 2,
      "byteOffset": 48720,
      "componentType": 5126,
      "count": 354,
      "max": [
        0.920417845249176,
        1.7821462154388428,
        0.29402533173561096
      ],
      "min": [
        -0.9419667720794678,
        -1.6873546838760376,
        -0.32463541626930237
      ],
      "type": "VEC3"
    },
    {
      "bufferView": 2,
      "byteOffset": 52968,
      "componentType": 5126,
      "count": 354,
      "max": [
        0.9744337201118469,
        0.9304155111312866,
        0.999518871307373
      ],
      "min": [
        -0.9730238318443298,
        -0.9432487487792969,
        -0.9995197057723999
      ],
      "type": "VEC3"
    },
    {
      "bufferView": 1,
      "byteOffset": 16240,
      "componentType": 5126,
      "count": 354,
      "max": [
        0.0,
        0.0
      ],
      "min": [
        0.0,
        0.0
      ],
      "type": "VEC2"
    },
    {
      "bufferView": 0,
      "byteOffset": 47616,
      "componentType": 5125,
      "count": 2112,
      "type": "SCALAR"
    },
    {
      "bufferView": 2,
      "byteOffset": 57216,
      "componentType": 5126,
      "count": 264,
      "max": [
        0.2686324417591095,
        0.778517484664917,
        -0.20497632026672363
      ],
      "min": [
        -3.4159250259399414,
        -0.7785171866416931,
        -6.005438327789307
      ],
      "type": "VEC3"
    },
    {
      "bufferView": 2,
      "byteOffset": 60384,
      "componentType": 5126,
      "count": 264,
      "max": [
        0.9913083910942078,
        0.9997591376304626,
        0.999997079372406
      ],
      "min": [
        -0.9888860583305359,
        -0.9997591376304626,
        -0.9926452040672302
      ],
      "type": "VEC3"
    },
    {
      "bufferView": 1,
      "byteOffset": 19072,
      "componentType": 5126,
      "count": 264,
      "max": [
        1.0000001192092896,
        1.0000001192092896
      ],
      "min": [
        0.0,
        0.0
      ],
      "type": "VEC2"
    },
    {
      "bufferView": 0,
      "byteOffset": 56064,
      "componentType": 5125,
      "count": 1344,
      "type": "SCALAR"
    },
    {
      "bufferView": 2,
      "byteOffset": 63552,
      "componentType": 5126,
      "count": 125,
      "max": [
        0.8395062685012817,
        0.8395062685012817,
        0.8395062685012817
      ],
      "min": [
        -0.8395062685012817,
        -0.8395062685012817,
        -0.8395062685012817
      ],
      "type": "VEC3"
    },
    {
      "bufferView": 2,
      "byteOffset": 65052,
      "componentType": 5126,
      "count": 125,
      "max": [
        1.0,
        1.0,
        1.0
      ],
      "min": [
        -1.0,
        -1.0,
        -1.0
      ],
      "type": "VEC3"
    },
    {
      "bufferView": 1,
      "byteOffset": 21184,
      "componentType": 5126,
      "count": 125,
      "max": [
        0.8750001192092896,
        1.0000001192092896
      ],
      "min": [
        0.1250000149011612,
        0.0
      ],
      "type": "VEC2"
    },
    {
      "bufferView": 0,
      "byteOffset": 61440,
      "componentType": 5125,
      "count": 576,
      "type": "SCALAR"
    },
    {
      "bufferView": 2,
      "byteOffset": 66552,
      "componentType": 5126,
      "count": 125,
      "max": [
        0.8395062685012817,
        0.8395062685012817,
        0.8395062685012817
      ],
      "min": [
        -0.8395062685012817,
        -0.8395062685012817,
        -0.8395062685012817
      ],
      "type": "VEC3"
    },
    {
      "bufferView": 2,
      "byteOffset": 68052,
      "componentType": 5126,
      "count": 125,
      "max": [
        1.0,
        1.0,
        1.0
      ],
      "min": [
        -1.0,
        -1.0,
        -1.0
      ],
      "type": "VEC3"
    },
    {
      "bufferView": 1,
      "byteOffset": 22184,
      "componentType": 5126,
      "count": 125,
      "max": [
        0.8750001192092896,
        1.0000001192092896
      ],
      "min": [
        0.1250000149011612,
        0.0
      ],
      "type": "VEC2"
    },
    {
      "bufferView": 0,
      "byteOffset": 63744,
      "componentType": 5125,
      "count": 576,
      "type": "SCALAR"
    },
    {
      "bufferView": 2,
      "byteOffset": 69552,
      "componentType": 5126,
      "count": 125,
      "max": [
        0.8395062685012817,
        0.8395062685012817,
        0.8395062685012817
      ],
      "min": [
        -0.8395062685012817,
        -0.8395062685012817,
        -0.8395062685012817
      ],
      "type": "VEC3"
    },
    {
      "bufferView": 2,
      "byteOffset": 71052,
      "componentType": 5126,
      "count": 125,
      "max": [
        1.0,
        1.0,
        1.0
      ],
      "min": [
        -1.0,
        -1.0,
        -1.0
      ],
      "type": "VEC3"
    },
    {
      "bufferView": 1,
      "byteOffset": 23184,
      "componentType": 5126,
      "count": 125,
      "max": [
        0.8750001192092896,
        1.0000001192092896
      ],
      "min": [
        0.1250000149011612,
        0.0
      ],
      "type": "VEC2"
    },
    {
      "bufferView": 0,
      "byteOffset": 66048,
      "componentType": 5125,
      "count": 576,
      "type": "SCALAR"
    },
    {
      "bufferView": 2,
      "byteOffset": 72552,
      "componentType": 5126,
      "count": 125,
      "max": [
        0.8395062685012817,
        0.8395062685012817,
        0.8395062685012817
      ],
      "min": [
        -0.8395062685012817,
        -0.8395062685012817,
        -0.8395062685012817
      ],
      "type": "VEC3"
    },
    {
      "bufferView": 2,
      "byteOffset": 74052,
      "componentType": 5126,
      "count": 125,
      "max": [
        1.0,
        1.0,
        1.0
      ],
      "min": [
        -1.0,
        -1.0,
        -1.0
      ],
      "type": "VEC3"
    },
    {
      "bufferView": 1,
      "byteOffset": 24184,
      "componentType": 5126,
      "count": 125,
      "max": [
        0.8750001192092896,
        1.0000001192092896
      ],
      "min": [
        0.1250000149011612,
        0.0
      ],
      "type": "VEC2"
    },
    {
      "bufferView": 0,
      "byteOffset": 68352,
      "componentType": 5125,
      "count": 576,
      "type": "SCALAR"
    },
    {
      "bufferView": 2,
      "byteOffset": 75552,
      "componentType": 5126,
      "count": 125,
      "max": [
        0.8395062685012817,
        0.8395062685012817,
        0.8395062685012817
      ],
      "min": [
        -0.8395062685012817,
        -0.8395062685012817,
        -0.8395062685012817
      ],
      "type": "VEC3"
    },
    {
      "bufferView": 2,
      "byteOffset": 77052,
      "componentType": 5126,
      "count": 125,
      "max": [
        1.0,
        1.0,
        1.0
      ],
      "min": [
        -1.0,
        -1.0,
        -1.0
      ],
      "type": "VEC3"
    },
    {
      "bufferView": 1,
      "byteOffset": 25184,
      "componentType": 5126,
      "count": 125,
      "max": [
        0.8750001192092896,
        1.0000001192092896
      ],
      "min": [
        0.1250000149011612,
        0.0
      ],
      "type": "VEC2"
    },
    {
      "bufferView": 0,
      "byteOffset": 70656,
      "componentType": 5125,
      "count": 576,
      "type": "SCALAR"
    },
    {
      "bufferView": 2,
      "byteOffset": 78552,
      "componentType": 5126,
      "count": 125,
      "max": [
        0.8395062685012817,
        0.8395062685012817,
        0.8395062685012817
      ],
      "min": [
        -0.8395062685012817,
        -0.8395062685012817,
        -0.8395062685012817
      ],
      "type": "VEC3"
    },
    {
      "bufferView": 2,
      "byteOffset": 80052,
      "componentType": 5126,
      "count": 125,
      "max": [
        1.0,
        1.0,
        1.0
      ],
      "min": [
        -1.0,
        -1.0,
        -1.0
      ],
      "type": "VEC3"
    },
    {
      "bufferView": 1,
      "byteOffset": 26184,
      "componentType": 5126,
      "count": 125,
      "max": [
        0.8750001192092896,
        1.0000001192092896
      ],
      "min": [
        0.1250000149011612,
        0.0
      ],
      "type": "VEC2"
    },
    {
      "bufferView": 0,
      "byteOffset": 72960,
      "componentType": 5125,
      "count": 576,
      "type": "SCALAR"
    },
    {
      "bufferView": 2,
      "byteOffset": 81552,
      "componentType": 5126,
      "count": 125,
      "max": [
        0.8395062685012817,
        0.8395062685012817,
        0.8395062685012817
      ],
      "min": [
        -0.8395062685012817,
        -0.8395062685012817,
        -0.8395062685012817
      ],
      "type": "VEC3"
    },
    {
      "bufferView": 2,
      "byteOffset": 83052,
      "componentType": 5126,
      "count": 125,
      "max": [
        1.0,
        1.0,
        1.0
      ],
      "min": [
        -1.0,
        -1.0,
        -1.0
      ],
      "type": "VEC3"
    },
    {
      "bufferView": 1,
      "byteOffset": 27184,
      "componentType": 5126,
      "count": 125,
      "max": [
        0.8750001192092896,
        1.0000001192092896
      ],
      "min": [
        0.1250000149011612,
        0.0
      ],
      "type": "VEC2"
    },
    {
      "bufferView": 0,
      "byteOffset": 75264,
      "componentType": 5125,
      "count": 576,
      "type": "SCALAR"
    },
    {
      "bufferView": 2,
      "byteOffset": 84552,
      "componentType": 5126,
      "count": 125,
      "max": [
        0.8395062685012817,
        0.8395062685012817,
        0.8395062685012817
      ],
      "min": [
        -0.8395062685012817,
        -0.8395062685012817,
        -0.8395062685012817
      ],
      "type": "VEC3"
    },
    {
      "bufferView": 2,
      "byteOffset": 86052,
      "componentType": 5126,
      "count": 125,
      "max": [
        1.0,
        1.0,
        1.0
      ],
      "min": [
        -1.0,
        -1.0,
        -1.0
      ],
      "type": "VEC3"
    },
    {
      "bufferView": 1,
      "byteOffset": 28184,
      "componentType": 5126,
      "count": 125,
      "max": [
        0.8750001192092896,
        1.0000001192092896
      ],
      "min": [
        0.1250000149011612,
        0.0
      ],
      "type": "VEC2"
    },
    {
      "bufferView": 0,
      "byteOffset": 77568,
      "componentType": 5125,
      "count": 576,
      "type": "SCALAR"
    },
    {
      "bufferView": 2,
      "byteOffset": 87552,
      "componentType": 5126,
      "count": 125,
      "max": [
        0.8395062685012817,
        0.8395062685012817,
        0.8395062685012817
      ],
      "min": [
        -0.8395062685012817,
        -0.8395062685012817,
        -0.8395062685012817
      ],
      "type": "VEC3"
    },
    {
      "bufferView": 2,
      "byteOffset": 89052,
      "componentType": 5126,
      "count": 125,
      "max": [
        1.0,
        1.0,
        1.0
      ],
      "min": [
        -1.0,
        -1.0,
        -1.0
      ],
      "type": "VEC3"
    },
    {
      "bufferView": 1,
      "byteOffset": 29184,
      "componentType": 5126,
      "count": 125,
      "max": [
        0.8750001192092896,
        1.0000001192092896
      ],
      "min": [
        0.1250000149011612,
        0.0
      ],
      "type": "VEC2"
    },
    {
      "bufferView": 0,
      "byteOffset": 79872,
      "componentType": 5125,
      "count": 576,
      "type": "SCALAR"
    },
    {
      "bufferView": 2,
      "byteOffset": 90552,
      "componentType": 5126,
      "count": 125,
      "max": [
        0.8395062685012817,
        0.8395062685012817,
        0.8395062685012817
      ],
      "min": [
        -0.8395062685012817,
        -0.8395062685012817,
        -0.8395062685012817
      ],
      "type": "VEC3"
    },
    {
      "bufferView": 2,
      "byteOffset": 92052,
      "componentType": 5126,
      "count": 125,
      "max": [
        1.0,
        1.0,
        1.0
      ],
      "min": [
        -1.0,
        -1.0,
        -1.0
      ],
      "type": "VEC3"
    },
    {
      "bufferView": 1,
      "byteOffset": 30184,
      "componentType": 5126,
      "count": 125,
      "max": [
        0.8750001192092896,
        1.0000001192092896
      ],
      "min": [
        0.1250000149011612,
        0.0
      ],
      "type": "VEC2"
    },
    {
      "bufferView": 0,
      "byteOffset": 82176,
      "componentType": 5125,
      "count": 576,
      "type": "SCALAR"
    },
    {
      "bufferView": 2,
      "byteOffset": 93552,
      "componentType": 5126,
      "count": 125,
      "max": [
        0.8395062685012817,
        0.8395062685012817,
        0.8395062685012817
      ],
      "min": [
        -0.8395062685012817,
        -0.8395062685012817,
        -0.8395062685012817
      ],
      "type": "VEC3"
    },
    {
      "bufferView": 2,
      "byteOffset": 95052,
      "componentType": 5126,
      "count": 125,
      "max": [
        1.0,
        1.0,
        1.0
      ],
      "min": [
        -1.0,
        -1.0,
        -1.0
      ],
      "type": "VEC3"
    },
    {
      "bufferView": 1,
      "byteOffset": 31184,
      "componentType": 5126,
      "count": 125,
      "max": [
        0.8750001192092896,
        1.0000001192092896
      ],
      "min": [
        0.1250000149011612,
        0.0
      ],
      "type": "VEC2"
    },
    {
      "bufferView": 0,
      "byteOffset": 84480,
      "componentType": 5125,
      "count": 576,
      "type": "SCALAR"
    },
    {
      "bufferView": 2,
      "byteOffset": 96552,
      "componentType": 5126,
      "count": 125,
      "max": [
        0.8395062685012817,
        0.8395062685012817,
        0.8395062685012817
      ],
      "min": [
        -0.8395062685012817,
        -0.8395062685012817,
        -0.8395062685012817
      ],
      "type": "VEC3"
    },
    {
      "bufferView": 2,
      "byteOffset": 98052,
      "componentType": 5126,
      "count": 125,
      "max": [
        1.0,
        1.0,
        1.0
      ],
      "min": [
        -1.0,
        -1.0,
        -1.0
      ],
      "type": "VEC3"
    },
    {
      "bufferView": 1,
      "byteOffset": 32184,
      "componentType": 5126,
      "count": 125,
      "max": [
        0.8750001192092896,
        1.0000001192092896
      ],
      "min": [
        0.1250000149011612,
        0.0
      ],
      "type": "VEC2"
    },
    {
      "bufferView": 0,
      "byteOffset": 86784,
      "componentType": 5125,
      "count": 576,
      "type": "SCALAR"
    }
  ],
  "asset": {
    "extras": {
      "author": "an4kemi (https://sketchfab.com/an4kemi)",
      "license": "CC-BY-4.0 (http://creativecommons.org/licenses/by/4.0/)",
      "source": "https://sketchfab.com/3d-models/strawberry-ade10fe226fb4fb4989087b5cea86ec3",
      "title": "Strawberry"
    },
    "generator": "Sketchfab-16.59.0",
    "version": "2.0"
  },
  "bufferViews": [
    {
      "buffer": 0,
      "byteLength": 89088,
      "name": "floatBufferViews",
      "target": 34963
    },
    {
      "buffer": 0,
      "byteLength": 33184,
      "byteOffset": 89088,
      "byteStride": 8,
      "name": "floatBufferViews",
      "target": 34962
    },
    {
      "buffer": 0,
      "byteLength": 99552,
      "byteOffset": 122272,
      "byteStride": 12,
      "name": "floatBufferViews",
      "target": 34962
    }
  ],
  "buffers": [
    {
      "byteLength": 221824,
      "uri": "scene.bin"
    }
  ],
  "materials": [
    {
      "doubleSided": true,
      "name": "Material.002",
      "pbrMetallicRoughness": {
        "baseColorFactor": [
          0.8,
          0.0565258,
          0.0675386,
          1.0
        ],
        "metallicFactor": 0.0,
        "roughnessFactor": 0.9518387765382638
      }
    },
    {
      "doubleSided": true,
      "name": "Material.003",
      "pbrMetallicRoughness": {
        "baseColorFactor": [
          0.0818747,
          0.38769,
          0.116988,
          1.0
        ],
        "metallicFactor": 0.0,
        "roughnessFactor": 0.9322182988464114
      }
    },
    {
      "doubleSided": true,
      "name": "Material.004",
      "pbrMetallicRoughness": {
        "baseColorFactor": [
          0.514891,
          0.8,
          0.477462,
          1.0
        ],
        "metallicFactor": 0.0,
        "roughnessFactor": 0.8398754889820724
      }
    }
  ],
  "meshes": [
    {
      "name": "Body_Material.002_0",
      "primitives": [
        {
          "attributes": {
            "NORMAL": 1,
            "POSITION": 0,
            "TEXCOORD_0": 2
          },
          "indices": 3,
          "material": 0,
          "mode": 4
        }
      ]
    },
    {
      "name": "Leaf_Material.003_0",
      "primitives": [
        {
          "attributes": {
            "NORMAL": 5,
            "POSITION": 4,
            "TEXCOORD_0": 6
          },
          "indices": 7,
          "material": 1,
          "mode": 4
        }
      ]
    },
    {
      "name": "Leaf.001_Material.003_0",
      "primitives": [
        {
          "attributes": {
            "NORMAL": 9,
            "POSITION": 8,
            "TEXCOORD_0": 10
          },
          "indices": 11,
          "material": 1,
          "mode": 4
        }
      ]
    },
    {
      "name": "Leaf.002_Material.003_0",
      "primitives": [
        {
          "attributes": {
            "NORMAL": 13,
            "POSITION": 12,
            "TEXCOORD_0": 14
          },
          "indices": 15,
          "material": 1,
          "mode": 4
        }
      ]
    },
    {
      "name": "Leaf.003_Material.003_0",
      "primitives": [
        {
          "attributes": {
            "NORMAL": 17,
            "POSITION": 16,
            "TEXCOORD_0": 18
          },
          "indices": 19,
          "material": 1,
          "mode": 4
        }
      ]
    },
    {
      "name": "Leaf.004_Material.003_0",
      "primitives": [
        {
          "attributes": {
            "NORMAL": 21,
            "POSITION": 20,
            "TEXCOORD_0": 22
          },
          "indices": 23,
          "material": 1,
          "mode": 4
        }
      ]
    },
    {
      "name": "Leaf.005_Material.003_0",
      "primitives": [
        {
          "attributes": {
            "NORMAL": 25,
            "POSITION": 24,
            "TEXCOORD_0": 26
          },
          "indices": 27,
          "material": 1,
          "mode": 4
        }
      ]
    },
    {
      "name": "Plane_Material.003_0",
      "primitives": [
        {
          "attributes": {
            "NORMAL": 29,
            "POSITION": 28,
            "TEXCOORD_0": 30
          },
          "indices": 31,
          "material": 1,
          "mode": 4
        }
      ]
    },
    {
      "name": "Seed_Material.004_0",
      "primitives": [
        {
          "attributes": {
            "NORMAL": 33,
            "POSITION": 32,
            "TEXCOORD_0": 34
          },
          "indices": 35,
          "material": 2,
          "mode": 4
        }
      ]
    },
    {
      "name": "Seed.001_Material.004_0",
      "primitives": [
        {
          "attributes": {
            "NORMAL": 37,
            "POSITION": 36,
            "TEXCOORD_0": 38
          },
          "indices": 39,
          "material": 2,
          "mode": 4
        }
      ]
    },
    {
      "name": "Seed.002_Material.004_0",
      "primitives": [
        {
          "attributes": {
            "NORMAL": 41,
            "POSITION": 40,
            "TEXCOORD_0": 42
          },
          "indices": 43,
          "material": 2,
          "mode": 4
        }
      ]
    },
    {
      "name": "Seed.003_Material.004_0",
      "primitives": [
        {
          "attributes": {
            "NORMAL": 45,
            "POSITION": 44,
            "TEXCOORD_0": 46
          },
          "indices": 47,
          "material": 2,
          "mode": 4
        }
      ]
    },
    {
      "name": "Seed.004_Material.004_0",
      "primitives": [
        {
          "attributes": {
            "NORMAL": 49,
            "POSITION": 48,
            "TEXCOORD_0": 50
          },
          "indices": 51,
          "material": 2,
          "mode": 4
        }
      ]
    },
    {
      "name": "Seed.005_Material.004_0",
      "primitives": [
        {
          "attributes": {
            "NORMAL": 53,
            "POSITION": 52,
            "TEXCOORD_0": 54
          },
          "indices": 55,
          "material": 2,
          "mode": 4
        }
      ]
    },
    {
      "name": "Seed.006_Material.004_0",
      "primitives": [
        {
          "attributes": {
            "NORMAL": 57,
            "POSITION": 56,
            "TEXCOORD_0": 58
          },
          "indices": 59,
          "material": 2,
          "mode": 4
        }
      ]
    },
    {
      "name": "Seed.007_Material.004_0",
      "primitives": [
        {
          "attributes": {
            "NORMAL": 61,
            "POSITION": 60,
            "TEXCOORD_0": 62
          },
          "indices": 63,
          "material": 2,
          "mode": 4
        }
      ]
    },
    {
      "name": "Seed.008_Material.004_0",
      "primitives": [
        {
          "attributes": {
            "NORMAL": 65,
            "POSITION": 64,
            "TEXCOORD_0": 66
          },
          "indices": 67,
          "material": 2,
          "mode": 4
        }
      ]
    },
    {
      "name": "Seed.009_Material.004_0",
      "primitives": [
        {
          "attributes": {
            "NORMAL": 69,
            "POSITION": 68,
            "TEXCOORD_0": 70
          },
          "indices": 71,
          "material": 2,
          "mode": 4
        }
      ]
    },
    {
      "name": "Seed.010_Material.004_0",
      "primitives": [
        {
          "attributes": {
            "NORMAL": 73,
            "POSITION": 72,
            "TEXCOORD_0": 74
          },
          "indices": 75,
          "material": 2,
          "mode": 4
        }
      ]
    },
    {
      "name": "Seed.011_Material.004_0",
      "primitives": [
        {
          "attributes": {
            "NORMAL": 77,
            "POSITION": 76,
            "TEXCOORD_0": 78
          },
          "indices": 79,
          "material": 2,
          "mode": 4
        }
      ]
    }
  ],
  "nodes": [
    {
      "children": [
        1
      ],
      "matrix": [
        1.0,
        0.0,
        0.0,
        0.0,
        0.0,
        2.220446049250313e-16,
        -1.0,
        0.0,
        0.0,
        1.0,
        2.220446049250313e-16,
        0.0,
        0.0,
        0.0,
        0.0,
        1.0
      ],
      "name": "Sketchfab_model"
    },
    {
      "children": [
        2
      ],
      "matrix": [
        0.009999999776482582,
        0.0,
        0.0,
        0.0,
        0.0,
        0.0,
        0.009999999776482582,
        0.0,
        0.0,
        -0.009999999776482582,
        0.0,
        0.0,
        0.0,
        0.0,
        0.0,
        1.0
      ],
      "name": "3bb7512ce07e4dfebd33f769abfda00c.fbx"
    },
    {
      "children": [
        3,
        5,
        7,
        9,
        11,
        13,
        15,
        17,
        19,
        21,
        23,
        25,
        27,
        29,
        31,
        33,
        35,
        37,
        39,
        41
      ],
      "name": "RootNode"
    },
    {
      "children": [
        4
      ],
      "matrix": [
        100.0,
        0.0,
        0.0,
        0.0,
        0.0,
        -1.629206793918314e-05,
        -99.99999999999868,
        0.0,
        0.0,
        99.99999999999868,
        -1.629206793918314e-05,
        0.0,
        0.0,
        0.0,
        0.0,
        1.0
      ],
      "name": "Body"
    },
    {
      "mesh": 0,
      "name": "Body_Material.002_0"
    },
    {
      "children": [
        6
      ],
      "matrix": [
        73.15155029296875,
        0.0,
        0.0,
        0.0,
        0.0,
        -1.1917900272296193e-05,
        -73.15155029296778,
        0.0,
        0.0,
        73.15155029296778,
        -1.1917900272296193e-05,
        0.0,
        7.936228275299072,
        357.2969970703125,
        117.534423828125,
        1.0
      ],
      "name": "Leaf"
    },
    {
      "mesh": 1,
      "name": "Leaf_Material.003_0"
    },
    {
      "children": [
        8
      ],
      "matrix": [
        -27.10457147606445,
        -3.506662691587386e-06,
        -68.77687426279468,
        0.0,
        -68.77687426279373,
        1.430826790387512e-05,
        27.104571476063352,
        0.0,
        1.2026111689735402e-05,
        73.92505645751807,
        -8.508569880152695e-06,
        0.0,
        114.0228500366211,
        368.8190002441406,
        -52.99358367919922,
        1.0
      ],
      "name": "Leaf.001"
    },
    {
      "mesh": 2,
      "name": "Leaf.001_Material.003_0"
    },
    {
      "children": [
        10
      ],
      "matrix": [
        -36.5505761810591,
        1.783472085563776e-14,
        71.52222602792138,
        0.0,
        71.52222602792118,
        6.0640246809173736e-06,
        36.550576181059,
        0.0,
        -5.399777324269622e-06,
        80.32043457031227,
        -2.759491475405043e-06,
        0.0,
        -92.20549011230469,
        356.978759765625,
        -54.58668899536133,
        1.0
      ],
      "name": "Leaf.002"
    },
    {
      "mesh": 3,
      "name": "Leaf.002_Material.003_0"
    },
    {
      "children": [
        12
      ],
      "matrix": [
        18.027885997075987,
        0.40888141866091904,
        54.48528210044977,
        0.0,
        54.437125988032484,
        -2.5854207620433174,
        -17.992550153348656,
        0.0,
        2.32630089669916,
        57.33206988061019,
        -1.1999626854753755,
        0.0,
        -94.6923599243164,
        368.0682067871094,
        30.729400634765625,
        1.0
      ],
      "name": "Leaf.003"
    },
    {
      "mesh": 4,
      "name": "Leaf.003_Material.003_0"
    },
    {
      "children": [
        14
      ],
      "matrix": [
        33.3020756552815,
        -2.555274870973932,
        -46.67182527776441,
        0.0,
        -46.701179753859776,
        0.5675300203716402,
        -33.354093337660096,
        0.0,
        1.9465597584537835,
        57.332070443840145,
        -1.7499790950196576,
        0.0,
        71.71441650390625,
        361.5904846191406,
        42.421417236328125,
        1.0
      ],
      "name": "Leaf.004"
    },
    {
      "mesh": 5,
      "name": "Leaf.004_Material.003_0"
    },
    {
      "children": [
        16
      ],
      "matrix": [
        -56.677906668515625,
        2.1161440582176687,
        -8.772380127627226,
        0.0,
        -8.719007601836564,
        1.5406035021278073,
        56.70470622670288,
        0.0,
        2.326292183651982,
        57.332070419559294,
        -1.1999538268873775,
        0.0,
        21.542478561401367,
        365.4151611328125,
        -117.14348602294922,
        1.0
      ],
      "name": "Leaf.005"
    },
    {
      "mesh": 6,
      "name": "Leaf.005_Material.003_0"
    },
    {
      "children": [
        18
      ],
      "matrix": [
        -24.294925689697266,
        -0.0,
        -0.0,
        -0.0,
        0.0,
        3.958145799139537e-06,
        24.294925689696946,
        -0.0,
        -0.0,
        -24.294925689696946,
        3.958145799139537e-06,
        -0.0,
        -27.644269943237305,
        297.99188232421875,
        -13.10601806640625,
        1.0
      ],
      "name": "Plane"
    },
    {
      "mesh": 7,
      "name": "Plane_Material.003_0"
    },
    {
      "children": [
        20
      ],
      "matrix": [
        19.30201530456543,
        0.0,
        0.0,
        0.0,
        -0.0,
        -3.1446974470513275e-06,
        -19.302015304565174,
        0.0,
        0.0,
        31.164697647094314,
        -5.077373713705683e-06,
        0.0,
        -7.753105640411377,
        265.73480224609375,
        160.01132202148438,
        1.0
      ],
      "name": "Seed"
    },
    {
      "mesh": 8,
      "name": "Seed_Material.004_0"
    },
    {
      "children": [
        22
      ],
      "matrix": [
        19.30201530456543,
        0.0,
        0.0,
        0.0,
        0.0,
        -3.1446974470513275e-06,
        -19.302015304565174,
        0.0,
        0.0,
        31.164697647094314,
        -5.077373713705683e-06,
        0.0,
        125.00718688964844,
        265.4251708984375,
        99.81134796142578,
        1.0
      ],
      "name": "Seed.001"
    },
    {
      "mesh": 9,
      "name": "Seed.001_Material.004_0"
    },
    {
      "children": [
        24
      ],
      "matrix": [
        19.30201530456543,
        0.0,
        0.0,
        0.0,
        0.0,
        -3.1446974470513275e-06,
        -19.302015304565174,
        0.0,
        0.0,
        31.164697647094314,
        -5.077373713705683e-06,
        0.0,
        145.17601013183594,
        262.97998046875,
        -70.5523681640625,
        1.0
      ],
      "name": "Seed.002"
    },
    {
      "mesh": 10,
      "name": "Seed.002_Material.004_0"
    },
    {
      "children": [
        26
      ],
      "matrix": [
        19.30201530456543,
        0.0,
        0.0,
        0.0,
        0.0,
        -3.1446974470513275e-06,
        -19.302015304565174,
        0.0,
        0.0,
        31.164697647094314,
        -5.077373713705683e-06,
        0.0,
        1.5984326601028442,
        269.5727233886719,
        -156.60064697265625,
        1.0
      ],
      "name": "Seed.003"
    },
    {
      "mesh": 11,
      "name": "Seed.003_Material.004_0"
    },
    {
      "children": [
        28
      ],
      "matrix": [
        19.30201530456543,
        0.0,
        0.0,
        0.0,
        -0.0,
        -3.1446974470513275e-06,
        -19.302015304565174,
        0.0,
        0.0,
        31.164697647094314,
        -5.077373713705683e-06,
        0.0,
        -132.968017578125,
        272.1141357421875,
        -89.34461212158203,
        1.0
      ],
      "name": "Seed.004"
    },
    {
      "mesh": 12,
      "name": "Seed.004_Material.004_0"
    },
    {
      "children": [
        30
      ],
      "matrix": [
        19.30201530456543,
        0.0,
        0.0,
        0.0,
        -0.0,
        -3.1446974470513275e-06,
        -19.302015304565174,
        0.0,
        0.0,
        31.164697647094314,
        -5.077373713705683e-06,
        0.0,
        -146.01939392089844,
        265.7345886230469,
        64.9874038696289,
        1.0
      ],
      "name": "Seed.005"
    },
    {
      "mesh": 13,
      "name": "Seed.005_Material.004_0"
    },
    {
      "children": [
        32
      ],
      "matrix": [
        18.947170839900235,
        3.6837714860462056,
        -0.0483696175833179,
        0.0,
        0.02189374215472508,
        -0.36600725964310526,
        -19.298532435592637,
        0.0,
        -5.948160929374235,
        30.586163372816433,
        -0.5868314276518,
        0.0,
        -117.43077087402344,
        119.77946472167969,
        -1.2183464765548706,
        1.0
      ],
      "name": "Seed.006"
    },
    {
      "mesh": 14,
      "name": "Seed.006_Material.004_0"
    },
    {
      "children": [
        34
      ],
      "matrix": [
        19.005839469268285,
        3.2281938950643347,
        -0.9615359746832212,
        0.0,
        5.379377341011893e-07,
        -5.509993727762199,
        -18.498858449582748,
        0.0,
        -5.438480759879873,
        29.409633216236323,
        -8.759832285027727,
        0.0,
        -65.49774932861328,
        163.7403106689453,
        -121.81743621826172,
        1.0
      ],
      "name": "Seed.007"
    },
    {
      "mesh": 15,
      "name": "Seed.007_Material.004_0"
    },
    {
      "children": [
        36
      ],
      "matrix": [
        18.776978344424712,
        4.470955020494861,
        0.05927821474921418,
        0.0,
        0.046767662248454835,
        0.059500672877373165,
        -19.301866937510813,
        0.0,
        -7.218964921673184,
        30.316977986139076,
        0.0759650080114261,
        0.0,
        -63.1667366027832,
        161.75244140625,
        122.59877014160156,
        1.0
      ],
      "name": "Seed.008"
    },
    {
      "mesh": 16,
      "name": "Seed.008_Material.004_0"
    },
    {
      "children": [
        38
      ],
      "matrix": [
        18.01512040128819,
        -5.93628364076913,
        3.5754292958697422,
        0.0,
        3.3625730607532645,
        -1.2196979755864927,
        -18.96768921289899,
        0.0,
        9.783393306183623,
        29.588767395686038,
        -0.1682853869368672,
        0.0,
        60.13337326049805,
        106.54254913330078,
        90.05168914794922,
        1.0
      ],
      "name": "Seed.009"
    },
    {
      "mesh": 17,
      "name": "Seed.009_Material.004_0"
    },
    {
      "children": [
        40
      ],
      "matrix": [
        19.30201530456543,
        0.0,
        0.0,
        0.0,
        0.0,
        -3.1446974470513275e-06,
        -19.302015304565174,
        0.0,
        0.0,
        31.164697647094314,
        -5.077373713705683e-06,
        0.0,
        144.5288543701172,
        180.86871337890625,
        -8.992254257202148,
        1.0
      ],
      "name": "Seed.010"
    },
    {
      "mesh": 18,
      "name": "Seed.010_Material.004_0"
    },
    {
      "children": [
        42
      ],
      "matrix": [
        19.293793016138117,
        -0.561431360791253,
        0.046267647639982715,
        0.0,
        -0.0725218870430979,
        -4.047545497052566,
        -18.87272733898114,
        0.0,
        0.9019816187558184,
        30.458316939509558,
        -6.535718699788151,
        0.0,
        82.10475158691406,
        119.73432159423828,
        -87.30769348144531,
        1.0
      ],
      "name": "Seed.011"
    },
    {
      "mesh": 19,
      "name": "Seed.011_Material.004_0"
    }
  ],
  "scene": 0,
  "scenes": [
    {
      "name": "Sketchfab_Scene",
      "nodes": [
        0
      ]
    }
  ]
}
