{
  "accessors": [
    {
      "bufferView": 2,
      "componentType": 5126,
      "count": 65532,
      "max": [
        0.5870959758758545,
        5.091800212860107,
        10.815382957458496
      ],
      "min": [
        -0.5870959758758545,
        -1.79413902759552,
        2.2745590209960938
      ],
      "type": "VEC3"
    },
    {
      "bufferView": 2,
      "byteOffset": 786384,
      "componentType": 5126,
      "count": 65532,
      "max": [
        0.999997615814209,
        0.9999971389770508,
        0.9999920129776001
      ],
      "min": [
        -0.999997615814209,
        -0.9999803304672241,
        -0.9999347925186157
      ],
      "type": "VEC3"
    },
    {
      "bufferView": 1,
      "componentType": 5126,
      "count": 65532,
      "max": [
        0.8809679746627808,
        1.0
      ],
      "min": [
        0.11903099715709686,
        0.0
      ],
      "type": "VEC2"
    },
    {
      "bufferView": 0,
      "componentType": 5125,
      "count": 98316,
      "type": "SCALAR"
    },
    {
      "bufferView": 2,
      "byteOffset": 1572768,
      "componentType": 5126,
      "count": 58608,
      "max": [
        0.5866119861602783,
        5.091341018676758,
        10.815821647644043
      ],
      "min": [
        -0.5866119861602783,
        -1.79367995262146,
        2.2745590209960938
      ],
      "type": "VEC3"
    },
    {
      "bufferView": 2,
      "byteOffset": 2276064,
      "componentType": 5126,
      "count": 58608,
      "max": [
        0.9999995231628418,
        0.9999995231628418,
        0.9999998807907104
      ],
      "min": [
        -0.9999995231628418,
        -0.9999995231628418,
        -0.9998706579208374
      ],
      "type": "VEC3"
    },
    {
      "bufferView": 1,
      "byteOffset": 524256,
      "componentType": 5126,
      "count": 58608,
      "max": [
        0.8809940218925476,
        1.0
      ],
      "min": [
        0.11898999661207199,
        0.0
      ],
      "type": "VEC2"
    },
    {
      "bufferView": 0,
      "byteOffset": 393264,
      "componentType": 5125,
      "count": 87924,
      "type": "SCALAR"
    },
    {
      "bufferView": 2,
      "byteOffset": 2979360,
      "componentType": 5126,
      "count": 65532,
      "max": [
        1.051427960395813,
        5.207881927490234,
        10.196698188781738
      ],
      "min": [
        -1.051427960395813,
        -1.051427960395813,
        -0.09110400080680847
      ],
      "type": "VEC3"
    },
    {
      "bufferView": 2,
      "byteOffset": 3765744,
      "componentType": 5126,
      "count": 65532,
      "max": [
        1.0,
        1.0,
        1.0
      ],
      "min": [
        -1.0,
        -1.0,
        -1.0
      ],
      "type": "VEC3"
    },
    {
      "bufferView": 1,
      "byteOffset": 993120,
      "componentType": 5126,
      "count": 65532,
      "max": [
        1.0,
        1.0
      ],
      "min": [
        -0.0,
        -0.006374000106006861
      ],
      "type": "VEC2"
    },
    {
      "bufferView": 0,
      "byteOffset": 744960,
      "componentType": 5125,
      "count": 98394,
      "type": "SCALAR"
    },
    {
      "bufferView": 2,
      "byteOffset": 4552128,
      "componentType": 5126,
      "count": 36232,
      "max": [
        1.0508339405059814,
        1.0508339405059814,
        10.195718765258789
      ],
      "min": [
        -1.0508339405059814,
        -1.0508339405059814,
        -0.09019500017166138
      ],
      "type": "VEC3"
    },
    {
      "bufferView": 2,
      "byteOffset": 4986912,
      "componentType": 5126,
      "count": 36232,
      "max": [
        0.999849259853363,
        0.999849259853363,
        0.80755215883255
      ],
      "min": [
        -0.999849259853363,
        -0.999849259853363,
        -0.9999942779541016
      ],
      "type": "VEC3"
    },
    {
      "bufferView": 1,
      "byteOffset": 1517376,
      "componentType": 5126,
      "count": 36232,
      "max": [
        0.625,
        1.0
      ],
      "min": [
        0.125,
        0.0
      ],
      "type": "VEC2"
    },
    {
      "bufferView": 0,
      "byteOffset": 1138536,
      "componentType": 5125,
      "count": 54348,
      "type": "SCALAR"
    },
    {
      "bufferView": 2,
      "byteOffset": 5421696,
      "componentType": 5126,
      "count": 32,
      "max": [
        0.4593620002269745,
        5.0807318687438965,
        7.298526763916016
      ],
      "min": [
        -0.4593620002269745,
        4.162008762359619,
        6.29627799987793
      ],
      "type": "VEC3"
    },
    {
      "bufferView": 2,
      "byteOffset": 5422080,
      "componentType": 5126,
      "count": 32,
      "max": [
        0.9594752788543701,
        0.9594752788543701,
        -0.2817927598953247
      ],
      "min": [
        -0.9594752788543701,
        -0.9594752788543701,
        -0.33771711587905884
      ],
      "type": "VEC3"
    },
    {
      "bufferView": 1,
      "byteOffset": 1807232,
      "componentType": 5126,
      "count": 32,
      "max": [
        0.6131219863891602,
        0.9914860129356384
      ],
      "min": [
        0.375,
        0.008514000102877617
      ],
      "type": "VEC2"
    },
    {
      "bufferView": 0,
      "byteOffset": 1355928,
      "componentType": 5125,
      "count": 48,
      "type": "SCALAR"
    }
  ],
  "asset": {
    "extras": {
      "author": "KejbisiDev (https://sketchfab.com/KejbisiDev)",
      "license": "CC-BY-4.0 (http://creativecommons.org/licenses/by/4.0/)",
      "source": "https://sketchfab.com/3d-models/wooden-lantern-0ba0e8b0f07e40d9a8d33bd21fe20ca5",
      "title": "Wooden Lantern"
    },
    "generator": "Sketchfab-15.37.0",
    "version": "2.0"
  },
  "bufferViews": [
    {
      "buffer": 0,
      "byteLength": 1356120,
      "name": "floatBufferViews",
      "target": 34963
    },
    {
      "buffer": 0,
      "byteLength": 1807488,
      "byteOffset": 1356120,
      "byteStride": 8,
      "name": "floatBufferViews",
      "target": 34962
    },
    {
      "buffer": 0,
      "byteLength": 5422464,
      "byteOffset": 3163608,
      "byteStride": 12,
      "name": "floatBufferViews",
      "target": 34962
    }
  ],
  "buffers": [
    {
      "byteLength": 8586072,
      "uri": "scene.bin"
    }
  ],
  "materials": [
    {
      "doubleSided": true,
      "name": "Material",
      "pbrMetallicRoughness": {
        "baseColorFactor": [
          0.329891,
          0.193075,
          0.121612,
          1.0
        ],
        "metallicFactor": 0.0,
        "roughnessFactor": 0.8011823178082373
      }
    },
    {
      "doubleSided": true,
      "name": "Material.001",
      "pbrMetallicRoughness": {
        "baseColorFactor": [
          0.122611,
          0.122611,
          0.122611,
          1.0
        ],
        "metallicFactor": 0.0,
        "roughnessFactor": 0.8727135052489084
      }
    },
    {
      "doubleSided": true,
      "name": "Material.002",
      "pbrMetallicRoughness": {
        "baseColorFactor": [
          0.8,
          0.8,
          0.8,
          1.0
        ],
        "metallicFactor": 0.0,
        "roughnessFactor": 0.7822061412653569
      }
    }
  ],
  "meshes": [
    {
      "name": "Object_0",
      "primitives": [
        {
          "attributes": {
            "NORMAL": 1,
            "POSITION": 0,
            "TEXCOORD_0": 2
          },
          "indices": 3,
          "material": 0,
          "mode": 4
        }
      ]
    },
    {
      "name": "Object_1",
      "primitives": [
        {
          "attributes": {
            "NORMAL": 5,
            "POSITION": 4,
            "TEXCOORD_0": 6
          },
          "indices": 7,
          "material": 0,
          "mode": 4
        }
      ]
    },
    {
      "name": "Object_2",
      "primitives": [
        {
          "attributes": {
            "NORMAL": 9,
            "POSITION": 8,
            "TEXCOORD_0": 10
          },
          "indices": 11,
          "material": 1,
          "mode": 4
        }
      ]
    },
    {
      "name": "Object_3",
      "primitives": [
        {
          "attributes": {
            "NORMAL": 13,
            "POSITION": 12,
            "TEXCOORD_0": 14
          },
          "indices": 15,
          "material": 1,
          "mode": 4
        }
      ]
    },
    {
      "name": "Object_4",
      "primitives": [
        {
          "attributes": {
            "NORMAL": 17,
            "POSITION": 16,
            "TEXCOORD_0": 18
          },
          "indices": 19,
          "material": 2,
          "mode": 4
        }
      ]
    }
  ],
  "nodes": [
    {
      "children": [
        1
      ],
      "matrix": [
        1.0,
        0.0,
        0.0,
        0.0,
        0.0,
        2.220446049250313e-16,
        -1.0,
        0.0,
        0.0,
        1.0,
        2.220446049250313e-16,
        0.0,
        0.0,
        0.0,
        0.0,
        1.0
      ],
      "name": "Sketchfab_model"
    },
    {
      "children": [
        2,
        3,
        4,
        5,
        6
      ],
      "name": "Wooden Lantern.obj.cleaner.materialmerger.gles"
    },
    {
      "mesh": 0,
      "name": "Object_2"
    },
    {
      "mesh": 1,
      "name": "Object_3"
    },
    {
      "mesh": 2,
      "name": "Object_4"
    },
    {
      "mesh": 3,
      "name": "Object_5"
    },
    {
      "mesh": 4,
      "name": "Object_6"
    }
  ],
  "scene": 0,
  "scenes": [
    {
      "name": "Sketchfab_Scene",
      "nodes": [
        0
      ]
    }
  ]
}
